#N canvas 0 0 1257 713 10;
#X obj -32 -24 cnv 15 1280 768 empty empty ROLAND_SH201 30 30 0 24
-66577 -260673 0;
#X obj 31 53 cnv 15 200 160 empty empty OSC1 20 12 1 15 -162280 -258113
0;
#X text 45 114 pitch;
#X text 46 79 detune;
#X text 45 151 pulse width;
#X text 55 161 comment;
#X text 55 124 comment;
#X text 56 89 comment;
#X obj 31 224 cnv 15 200 160 empty empty OSC2 20 12 1 15 -162280 -258113
0;
#X text 45 285 pitch;
#X text 46 250 detune;
#X text 45 322 pulse width;
#X text 55 332 comment;
#X text 55 295 comment;
#X text 56 260 comment;
#X text 49 225 comment;
#X obj 219 153 singlecc2 8;
#X text 49 54 comment;
#X text 89 234 comment;
#X obj 34 96 singlecc 76;
#X obj 32 132 singlecc 20;
#X obj 33 166 singlecc 3;
#X obj 34 267 singlecc 77;
#X obj 32 303 singlecc 21;
#X obj 33 337 singlecc 95;
#X obj 295 53 cnv 15 200 150 empty empty Filter 20 12 0 14 -128992
-258113 0;
#X obj 305 86 singlecc 74;
#X obj 305 116 singlecc 71;
#X obj 305 147 singlecc 30;
#X text 339 71 cutoff;
#X text 339 105 resonance;
#X text 340 135 key follow;
#X obj 532 59 cnv 15 180 60 empty empty Amp 20 12 0 14 -232576 -260097
0;
#X obj 536 81 singlecc 14;
#X obj 32 400 cnv 15 140 190 empty empty Filter 20 12 0 14 -4034 -258113
0;
#X obj 119 422 singlecc2 25;
#X obj 56 420 singlecc2 26;
#X obj 88 421 singlecc2 27;
#X obj 704 150 cnv 15 110 190 empty empty Effetcts 20 12 0 14 -261234
-258113 0;
#X obj 728 170 singlecc2 12;
#X obj 760 171 singlecc2 93;
#X obj 297 219 cnv 15 120 200 empty empty LFO1 20 12 0 14 -191407 -4160
0;
#X obj 297 429 cnv 15 120 200 empty empty LFO1 20 12 0 14 -191407 -4160
0;
#X obj 310 242 singlecc2 16;
#X obj 342 243 singlecc2 18;
#X obj 373 244 singlecc2 19;
#X obj 310 452 singlecc2 17;
#X obj 342 453 singlecc2 22;
#X obj 373 454 singlecc2 23;
#X obj 463 219 cnv 15 180 190 empty empty Filter_ENV 20 12 0 14 -262130
-258113 0;
#X obj 487 239 singlecc2 82;
#X obj 519 240 singlecc2 83;
#X obj 550 241 singlecc2 28;
#X obj 577 242 singlecc2 29;
#X obj 604 243 singlecc2 81;
#X obj 463 422 cnv 15 180 190 empty empty AMP_ENV 20 12 0 14 -257985
-258113 0;
#X obj 487 442 singlecc2 73;
#X obj 519 443 singlecc2 75;
#X obj 550 444 singlecc2 31;
#X obj 577 445 singlecc2 72;
#X obj 219 153 singlecc2 8;
#X obj 219 153 singlecc2 8;
#X obj 219 153 singlecc2 8;
#X obj 219 153 singlecc2 8;
#X obj 219 153 singlecc2 8;
#X obj 219 153 singlecc2 8;
#X obj 219 153 singlecc2 8;
#X obj 219 153 singlecc2 8;
#X obj 219 153 singlecc2 8;
#X obj 219 153 singlecc2 8;
#X obj 219 153 singlecc2 8;
#X obj 219 153 singlecc2 8;
#X obj 219 153 singlecc2 8;
#X obj 219 153 singlecc2 8;
#X obj 219 153 singlecc2 8;
#X obj 219 153 singlecc2 8;
#X obj 219 153 singlecc2 8;
#X obj 219 153 singlecc2 8;
#X obj 219 153 singlecc2 8;
#X obj 219 153 singlecc2 8;
#X obj 219 153 singlecc2 8;
#X obj 219 153 singlecc2 8;
#X obj 219 153 singlecc2 8;
#X obj 219 153 singlecc2 8;
#X obj 219 153 singlecc2 8;
#X obj 219 153 singlecc2 8;
#X obj 219 153 singlecc2 8;
#X obj 219 153 singlecc2 8;
#X obj 219 153 singlecc2 8;
#X obj 219 153 singlecc2 8;
#X obj 219 153 singlecc2 8;
#X obj 219 153 singlecc2 8;
#X obj 219 153 singlecc2 8;
#X obj 219 153 singlecc2 8;
#X obj 219 153 singlecc2 8;
#X obj 219 153 singlecc2 8;
#X obj 219 153 singlecc2 8;
#X obj 219 153 singlecc2 8;
#X obj 219 153 singlecc2 8;
#X obj 219 153 singlecc2 8;
#X obj 219 153 singlecc2 8;
#X obj 219 153 singlecc2 8;
#X obj 219 153 singlecc2 8;
#X obj 219 153 singlecc2 8;
#X obj 219 153 singlecc2 8;
#X obj 219 153 singlecc2 8;
#X obj 219 153 singlecc2 8;
#X obj 219 153 singlecc2 8;
#X obj 219 153 singlecc2 8;
#X obj 219 153 singlecc2 8;
#X obj 219 153 singlecc2 8;
#X obj 219 153 singlecc2 8;
#X obj 219 153 singlecc2 8;
#X obj 219 153 singlecc2 8;
#X obj 219 153 singlecc2 8;
#X obj 219 153 singlecc2 8;
#X obj 219 153 singlecc2 8;
#X obj 219 153 singlecc2 8;
#X obj 219 153 singlecc2 8;
#X obj 219 153 singlecc2 8;
#X obj 219 153 singlecc2 8;
#X obj 219 153 singlecc2 8;
#X obj 219 153 singlecc2 8;
#X obj 219 153 singlecc2 8;
#X obj 219 153 singlecc2 8;
#X obj 219 153 singlecc2 8;
#X obj 219 153 singlecc2 8;
#X obj 219 153 singlecc2 8;
#X obj 219 153 singlecc2 8;
#X obj 219 153 singlecc2 8;
#X obj 219 153 singlecc2 8;
#X obj 219 153 singlecc2 8;
#X obj 219 153 singlecc2 8;
#X obj 219 153 singlecc2 8;
#X obj 219 153 singlecc2 8;
#X obj 219 153 singlecc2 8;
#X obj 219 153 singlecc2 8;
#X obj 219 153 singlecc2 8;
#X obj 219 153 singlecc2 8;
#X obj 219 153 singlecc2 8;
#X obj 219 153 singlecc2 8;
#X obj 219 153 singlecc2 8;
#X obj 219 153 singlecc2 8;
#X obj 219 153 singlecc2 8;
#X obj 219 153 singlecc2 8;
#X obj 219 153 singlecc2 8;
#X obj 219 153 singlecc2 8;
#X obj 219 153 singlecc2 8;
#X obj 219 153 singlecc2 8;
#X obj 219 153 singlecc2 8;
#X obj 219 153 singlecc2 8;
#X obj 219 153 singlecc2 8;
#X obj 219 153 singlecc2 8;
#X obj 219 153 singlecc2 8;
#X obj 219 153 singlecc2 8;
#X obj 219 153 singlecc2 8;
#X obj 219 153 singlecc2 8;
#X obj 219 153 singlecc2 8;
#X obj 219 153 singlecc2 8;
#X obj 219 153 singlecc2 8;
#X obj 219 153 singlecc2 8;
#X obj 219 153 singlecc2 8;
#X obj 219 153 singlecc2 8;
#X obj 219 153 singlecc2 8;
#X obj 219 153 singlecc2 8;
#X obj 219 153 singlecc2 8;
#X obj 219 153 singlecc2 8;
#X obj 219 153 singlecc2 8;
#X obj 219 153 singlecc2 8;
#X obj 219 153 singlecc2 8;
#X obj 219 153 singlecc2 8;
#X obj 219 153 singlecc2 8;
#X obj 219 153 singlecc2 8;
#X obj 219 153 singlecc2 8;
#X obj 219 153 singlecc2 8;
#X obj 219 153 singlecc2 8;
#X obj 219 153 singlecc2 8;
#X obj 219 153 singlecc2 8;
#X obj 219 153 singlecc2 8;
#X obj 219 153 singlecc2 8;
#X obj 219 153 singlecc2 8;
#X obj 219 153 singlecc2 8;
#X obj 219 153 singlecc2 8;
#X obj 219 153 singlecc2 8;
#X obj 219 153 singlecc2 8;
#X obj 219 153 singlecc2 8;
#X obj 219 153 singlecc2 8;
#X obj 219 153 singlecc2 8;
#X obj 219 153 singlecc2 8;
#X obj 219 153 singlecc2 8;
#X obj 219 153 singlecc2 8;
#X obj 219 153 singlecc2 8;
#X obj 34 96 singlecc 76;
#X obj 34 96 singlecc 76;
#X obj 34 96 singlecc 76;
#X obj 34 96 singlecc 76;
#X obj 34 96 singlecc 76;
#X obj 34 96 singlecc 76;
#X obj 34 96 singlecc 76;
#X obj 34 96 singlecc 76;
#X obj 34 96 singlecc 76;
#X obj 34 96 singlecc 76;
#X obj 34 96 singlecc 76;
#X obj 34 96 singlecc 76;
#X obj 34 96 singlecc 76;
#X obj 34 96 singlecc 76;
#X obj 34 96 singlecc 76;
#X obj 34 96 singlecc 76;
#X obj 34 96 singlecc 76;
#X obj 34 96 singlecc 76;
#X obj 34 96 singlecc 76;
#X obj 34 96 singlecc 76;
#X obj 34 96 singlecc 76;
#X obj 34 96 singlecc 76;
#X obj 34 96 singlecc 76;
#X obj 34 96 singlecc 76;
#X obj 34 96 singlecc 76;
#X obj 34 96 singlecc 76;
#X obj 34 96 singlecc 76;
#X obj 34 96 singlecc 76;
#X obj 34 96 singlecc 76;
#X obj 34 96 singlecc 76;
#X obj 34 96 singlecc 76;
#X obj 34 96 singlecc 76;
#X obj 34 96 singlecc 76;
#X obj 34 96 singlecc 76;
#X obj 34 96 singlecc 76;
#X obj 34 96 singlecc 76;
#X obj 34 96 singlecc 76;
#X obj 34 96 singlecc 76;
#X obj 34 96 singlecc 76;
#X obj 34 96 singlecc 76;
#X obj 34 96 singlecc 76;
#X obj 34 96 singlecc 76;
#X obj 34 96 singlecc 76;
#X obj 34 96 singlecc 76;
#X obj 34 96 singlecc 76;
#X obj 34 96 singlecc 76;
#X obj 34 96 singlecc 76;
#X obj 34 96 singlecc 76;
#X obj 34 96 singlecc 76;
#X obj 34 96 singlecc 76;
#X obj 34 96 singlecc 76;
#X obj 34 96 singlecc 76;
#X obj 34 96 singlecc 76;
#X obj 34 96 singlecc 76;
#X obj 34 96 singlecc 76;
#X obj 34 96 singlecc 76;
#X obj 34 96 singlecc 76;
#X obj 34 96 singlecc 76;
#X obj 34 96 singlecc 76;
#X obj 34 96 singlecc 76;
#X obj 34 96 singlecc 76;
#X obj 34 96 singlecc 76;
#X obj 34 96 singlecc 76;
#X obj 34 96 singlecc 76;
#X obj 34 96 singlecc 76;
#X obj 34 96 singlecc 76;
#X obj 34 96 singlecc 76;
#X obj 34 96 singlecc 76;
#X obj 34 96 singlecc 76;
#X obj 34 96 singlecc 76;
#X obj 34 96 singlecc 76;
#X obj 34 96 singlecc 76;
#X obj 34 96 singlecc 76;
#X obj 34 96 singlecc 76;
#X obj 34 96 singlecc 76;
#X obj 34 96 singlecc 76;
#X obj 34 96 singlecc 76;
#X obj 34 96 singlecc 76;
#X obj 34 96 singlecc 76;
#X obj 34 96 singlecc 76;
#X obj 34 96 singlecc 76;
#X obj 34 96 singlecc 76;
#X obj 34 96 singlecc 76;
#X obj 34 96 singlecc 76;
#X obj 34 96 singlecc 76;
#X obj 34 96 singlecc 76;
#X obj 34 96 singlecc 76;
#X obj 34 96 singlecc 76;
#X obj 34 96 singlecc 76;
#X obj 34 96 singlecc 76;
#X obj 34 96 singlecc 76;
#X obj 34 96 singlecc 76;
#X obj 34 96 singlecc 76;
#X obj 34 96 singlecc 76;
#X obj 34 96 singlecc 76;
#X obj 34 96 singlecc 76;
#X obj 34 96 singlecc 76;
#X obj 34 96 singlecc 76;
#X obj 34 96 singlecc 76;
#X obj 34 96 singlecc 76;
#X obj 34 96 singlecc 76;
#X obj 34 96 singlecc 76;
#X obj 34 96 singlecc 76;
#X obj 34 96 singlecc 76;
#X obj 34 96 singlecc 76;
#X obj 34 96 singlecc 76;
#X obj 34 96 singlecc 76;
#X obj 34 96 singlecc 76;
#X obj 34 96 singlecc 76;
#X obj 34 96 singlecc 76;
#X obj 34 96 singlecc 76;
#X obj 34 96 singlecc 76;
#X obj 34 96 singlecc 76;
#X obj 34 96 singlecc 76;
#X obj 34 96 singlecc 76;
#X obj 34 96 singlecc 76;
#X obj 34 96 singlecc 76;
#X obj 34 96 singlecc 76;
#X obj 34 96 singlecc 76;
#X obj 34 96 singlecc 76;
#X obj 34 96 singlecc 76;
#X obj 34 96 singlecc 76;
#X obj 34 96 singlecc 76;
#X obj 34 96 singlecc 76;
#X obj 34 96 singlecc 76;
#X obj 34 96 singlecc 76;
#X obj 34 96 singlecc 76;
#X obj 34 96 singlecc 76;
#X obj 34 96 singlecc 76;
#X obj 34 96 singlecc 76;
#X obj 34 96 singlecc 76;
#X obj 34 96 singlecc 76;
#X obj 34 96 singlecc 76;
#X obj 34 96 singlecc 76;
#X obj 34 96 singlecc 76;
#X obj 34 96 singlecc 76;
#X obj 34 96 singlecc 76;
#X obj 34 96 singlecc 76;
#X obj 34 96 singlecc 76;
#X obj 34 96 singlecc 76;
#X obj 34 96 singlecc 76;
#X obj 34 96 singlecc 76;
#X obj 34 96 singlecc 76;
#X obj 34 96 singlecc 76;
#X obj 34 96 singlecc 76;
#X obj 34 96 singlecc 76;
#X obj 34 96 singlecc 76;
#X obj 34 96 singlecc 76;
#X obj 34 96 singlecc 76;
#X obj 34 96 singlecc 76;
#X obj 34 96 singlecc 76;
#X obj 34 96 singlecc 76;
#X obj 34 96 singlecc 76;
#X obj 34 96 singlecc 76;
#X obj 34 96 singlecc 76;
#X obj 34 96 singlecc 76;
#X obj 34 96 singlecc 76;
#X obj 34 96 singlecc 76;
#X obj 34 96 singlecc 76;
#X obj 34 96 singlecc 76;
#X obj 34 96 singlecc 76;
#X obj 34 96 singlecc 76;
#X obj 34 96 singlecc 76;
#X obj 34 96 singlecc 76;
#X obj 34 96 singlecc 76;
#X obj 34 96 singlecc 76;
#X obj 34 96 singlecc 76;
#X obj 34 96 singlecc 76;
#X obj 34 96 singlecc 76;
#X obj 34 96 singlecc 76;
#X obj 34 96 singlecc 76;
#X obj 34 96 singlecc 76;
#X obj 34 96 singlecc 76;
#X obj 32 132 singlecc 20;
#X obj 32 132 singlecc 20;
#X obj 32 132 singlecc 20;
#X obj 32 132 singlecc 20;
#X obj 32 132 singlecc 20;
#X obj 32 132 singlecc 20;
#X obj 32 132 singlecc 20;
#X obj 32 132 singlecc 20;
#X obj 32 132 singlecc 20;
#X obj 32 132 singlecc 20;
#X obj 32 132 singlecc 20;
#X obj 32 132 singlecc 20;
#X obj 32 132 singlecc 20;
#X obj 32 132 singlecc 20;
#X obj 32 132 singlecc 20;
#X obj 32 132 singlecc 20;
#X obj 32 132 singlecc 20;
#X obj 32 132 singlecc 20;
#X obj 32 132 singlecc 20;
#X obj 32 132 singlecc 20;
#X obj 32 132 singlecc 20;
#X obj 32 132 singlecc 20;
#X obj 32 132 singlecc 20;
#X obj 32 132 singlecc 20;
#X obj 32 132 singlecc 20;
#X obj 32 132 singlecc 20;
#X obj 32 132 singlecc 20;
#X obj 32 132 singlecc 20;
#X obj 32 132 singlecc 20;
#X obj 32 132 singlecc 20;
#X obj 32 132 singlecc 20;
#X obj 32 132 singlecc 20;
#X obj 32 132 singlecc 20;
#X obj 32 132 singlecc 20;
#X obj 32 132 singlecc 20;
#X obj 32 132 singlecc 20;
#X obj 32 132 singlecc 20;
#X obj 32 132 singlecc 20;
#X obj 32 132 singlecc 20;
#X obj 32 132 singlecc 20;
#X obj 32 132 singlecc 20;
#X obj 32 132 singlecc 20;
#X obj 32 132 singlecc 20;
#X obj 32 132 singlecc 20;
#X obj 32 132 singlecc 20;
#X obj 32 132 singlecc 20;
#X obj 32 132 singlecc 20;
#X obj 32 132 singlecc 20;
#X obj 32 132 singlecc 20;
#X obj 32 132 singlecc 20;
#X obj 32 132 singlecc 20;
#X obj 32 132 singlecc 20;
#X obj 32 132 singlecc 20;
#X obj 32 132 singlecc 20;
#X obj 32 132 singlecc 20;
#X obj 32 132 singlecc 20;
#X obj 32 132 singlecc 20;
#X obj 32 132 singlecc 20;
#X obj 32 132 singlecc 20;
#X obj 32 132 singlecc 20;
#X obj 32 132 singlecc 20;
#X obj 32 132 singlecc 20;
#X obj 32 132 singlecc 20;
#X obj 32 132 singlecc 20;
#X obj 32 132 singlecc 20;
#X obj 32 132 singlecc 20;
#X obj 32 132 singlecc 20;
#X obj 32 132 singlecc 20;
#X obj 32 132 singlecc 20;
#X obj 32 132 singlecc 20;
#X obj 32 132 singlecc 20;
#X obj 32 132 singlecc 20;
#X obj 32 132 singlecc 20;
#X obj 32 132 singlecc 20;
#X obj 32 132 singlecc 20;
#X obj 32 132 singlecc 20;
#X obj 32 132 singlecc 20;
#X obj 32 132 singlecc 20;
#X obj 32 132 singlecc 20;
#X obj 32 132 singlecc 20;
#X obj 32 132 singlecc 20;
#X obj 32 132 singlecc 20;
#X obj 32 132 singlecc 20;
#X obj 32 132 singlecc 20;
#X obj 32 132 singlecc 20;
#X obj 32 132 singlecc 20;
#X obj 32 132 singlecc 20;
#X obj 32 132 singlecc 20;
#X obj 32 132 singlecc 20;
#X obj 32 132 singlecc 20;
#X obj 32 132 singlecc 20;
#X obj 32 132 singlecc 20;
#X obj 32 132 singlecc 20;
#X obj 32 132 singlecc 20;
#X obj 32 132 singlecc 20;
#X obj 32 132 singlecc 20;
#X obj 32 132 singlecc 20;
#X obj 32 132 singlecc 20;
#X obj 32 132 singlecc 20;
#X obj 32 132 singlecc 20;
#X obj 32 132 singlecc 20;
#X obj 32 132 singlecc 20;
#X obj 32 132 singlecc 20;
#X obj 32 132 singlecc 20;
#X obj 32 132 singlecc 20;
#X obj 32 132 singlecc 20;
#X obj 32 132 singlecc 20;
#X obj 32 132 singlecc 20;
#X obj 32 132 singlecc 20;
#X obj 32 132 singlecc 20;
#X obj 32 132 singlecc 20;
#X obj 32 132 singlecc 20;
#X obj 32 132 singlecc 20;
#X obj 32 132 singlecc 20;
#X obj 32 132 singlecc 20;
#X obj 32 132 singlecc 20;
#X obj 32 132 singlecc 20;
#X obj 32 132 singlecc 20;
#X obj 32 132 singlecc 20;
#X obj 32 132 singlecc 20;
#X obj 32 132 singlecc 20;
#X obj 32 132 singlecc 20;
#X obj 32 132 singlecc 20;
#X obj 32 132 singlecc 20;
#X obj 32 132 singlecc 20;
#X obj 32 132 singlecc 20;
#X obj 32 132 singlecc 20;
#X obj 32 132 singlecc 20;
#X obj 32 132 singlecc 20;
#X obj 32 132 singlecc 20;
#X obj 32 132 singlecc 20;
#X obj 32 132 singlecc 20;
#X obj 32 132 singlecc 20;
#X obj 32 132 singlecc 20;
#X obj 32 132 singlecc 20;
#X obj 32 132 singlecc 20;
#X obj 32 132 singlecc 20;
#X obj 32 132 singlecc 20;
#X obj 32 132 singlecc 20;
#X obj 32 132 singlecc 20;
#X obj 32 132 singlecc 20;
#X obj 32 132 singlecc 20;
#X obj 32 132 singlecc 20;
#X obj 32 132 singlecc 20;
#X obj 32 132 singlecc 20;
#X obj 32 132 singlecc 20;
#X obj 32 132 singlecc 20;
#X obj 32 132 singlecc 20;
#X obj 32 132 singlecc 20;
#X obj 32 132 singlecc 20;
#X obj 32 132 singlecc 20;
#X obj 32 132 singlecc 20;
#X obj 32 132 singlecc 20;
#X obj 32 132 singlecc 20;
#X obj 32 132 singlecc 20;
#X obj 32 132 singlecc 20;
#X obj 32 132 singlecc 20;
#X obj 32 132 singlecc 20;
#X obj 32 132 singlecc 20;
#X obj 32 132 singlecc 20;
#X obj 32 132 singlecc 20;
#X obj 32 132 singlecc 20;
#X obj 32 132 singlecc 20;
#X obj 32 132 singlecc 20;
#X obj 32 132 singlecc 20;
#X obj 32 132 singlecc 20;
#X obj 32 132 singlecc 20;
#X obj 32 132 singlecc 20;
#X obj 32 132 singlecc 20;
#X obj 32 132 singlecc 20;
#X obj 32 132 singlecc 20;
#X obj 32 132 singlecc 20;
#X obj 32 132 singlecc 20;
#X obj 32 132 singlecc 20;
#X obj 32 132 singlecc 20;
#X obj 32 132 singlecc 20;
#X obj 32 132 singlecc 20;
#X obj 32 132 singlecc 20;
#X obj 32 132 singlecc 20;
#X obj 32 132 singlecc 20;
#X obj 32 132 singlecc 20;
#X obj 32 132 singlecc 20;
#X obj 32 132 singlecc 20;
#X obj 32 132 singlecc 20;
#X obj 32 132 singlecc 20;
#X obj 32 132 singlecc 20;
#X obj 32 132 singlecc 20;
#X obj 32 132 singlecc 20;
#X obj 32 132 singlecc 20;
#X obj 32 132 singlecc 20;
#X obj 32 132 singlecc 20;
#X obj 32 132 singlecc 20;
#X obj 32 132 singlecc 20;
#X obj 32 132 singlecc 20;
#X obj 32 132 singlecc 20;
#X obj 32 132 singlecc 20;
#X obj 32 132 singlecc 20;
#X obj 32 132 singlecc 20;
#X obj 32 132 singlecc 20;
#X obj 32 132 singlecc 20;
#X obj 32 132 singlecc 20;
#X obj 32 132 singlecc 20;
#X obj 32 132 singlecc 20;
#X obj 32 132 singlecc 20;
#X obj 32 132 singlecc 20;
#X obj 32 132 singlecc 20;
#X obj 32 132 singlecc 20;
#X obj 32 132 singlecc 20;
#X obj 32 132 singlecc 20;
#X obj 32 132 singlecc 20;
#X obj 32 132 singlecc 20;
#X obj 32 132 singlecc 20;
#X obj 32 132 singlecc 20;
#X obj 32 132 singlecc 20;
#X obj 32 132 singlecc 20;
#X obj 32 132 singlecc 20;
#X obj 32 132 singlecc 20;
#X obj 32 132 singlecc 20;
#X obj 32 132 singlecc 20;
#X obj 32 132 singlecc 20;
#X obj 32 132 singlecc 20;
#X obj 32 132 singlecc 20;
#X obj 32 132 singlecc 20;
#X obj 32 132 singlecc 20;
#X obj 32 132 singlecc 20;
#X obj 32 132 singlecc 20;
#X obj 32 132 singlecc 20;
#X obj 32 132 singlecc 20;
#X obj 32 132 singlecc 20;
#X obj 32 132 singlecc 20;
#X obj 32 132 singlecc 20;
#X obj 32 132 singlecc 20;
#X obj 32 132 singlecc 20;
#X obj 32 132 singlecc 20;
#X obj 32 132 singlecc 20;
#X obj 32 132 singlecc 20;
#X obj 32 132 singlecc 20;
#X obj 32 132 singlecc 20;
#X obj 32 132 singlecc 20;
#X obj 32 132 singlecc 20;
#X obj 32 132 singlecc 20;
#X obj 32 132 singlecc 20;
#X obj 32 132 singlecc 20;
#X obj 32 132 singlecc 20;
#X obj 32 132 singlecc 20;
#X obj 32 132 singlecc 20;
#X obj 32 132 singlecc 20;
#X obj 32 132 singlecc 20;
#X obj 32 132 singlecc 20;
#X obj 32 132 singlecc 20;
#X obj 32 132 singlecc 20;
#X obj 32 132 singlecc 20;
#X obj 32 132 singlecc 20;
#X obj 32 132 singlecc 20;
#X obj 32 132 singlecc 20;
#X obj 32 132 singlecc 20;
#X obj 32 132 singlecc 20;
#X obj 32 132 singlecc 20;
#X obj 32 132 singlecc 20;
#X obj 32 132 singlecc 20;
#X obj 32 132 singlecc 20;
#X obj 32 132 singlecc 20;
#X obj 32 132 singlecc 20;
#X obj 32 132 singlecc 20;
#X obj 32 132 singlecc 20;
#X obj 32 132 singlecc 20;
#X obj 32 132 singlecc 20;
#X obj 32 132 singlecc 20;
#X obj 32 132 singlecc 20;
#X obj 32 132 singlecc 20;
#X obj 32 132 singlecc 20;
#X obj 32 132 singlecc 20;
#X obj 32 132 singlecc 20;
#X obj 32 132 singlecc 20;
#X obj 32 132 singlecc 20;
#X obj 32 132 singlecc 20;
#X obj 32 132 singlecc 20;
#X obj 32 132 singlecc 20;
#X obj 32 132 singlecc 20;
#X obj 32 132 singlecc 20;
#X obj 32 132 singlecc 20;
#X obj 32 132 singlecc 20;
#X obj 32 132 singlecc 20;
#X obj 32 132 singlecc 20;
#X obj 32 132 singlecc 20;
#X obj 32 132 singlecc 20;
#X obj 32 132 singlecc 20;
#X obj 32 132 singlecc 20;
#X obj 32 132 singlecc 20;
#X obj 32 132 singlecc 20;
#X obj 32 132 singlecc 20;
#X obj 32 132 singlecc 20;
#X obj 32 132 singlecc 20;
#X obj 32 132 singlecc 20;
#X obj 32 132 singlecc 20;
#X obj 32 132 singlecc 20;
#X obj 32 132 singlecc 20;
#X obj 32 132 singlecc 20;
#X obj 32 132 singlecc 20;
#X obj 32 132 singlecc 20;
#X obj 32 132 singlecc 20;
#X obj 32 132 singlecc 20;
#X obj 32 132 singlecc 20;
#X obj 32 132 singlecc 20;
#X obj 32 132 singlecc 20;
#X obj 32 132 singlecc 20;
#X obj 32 132 singlecc 20;
#X obj 32 132 singlecc 20;
#X obj 32 132 singlecc 20;
#X obj 32 132 singlecc 20;
#X obj 32 132 singlecc 20;
#X obj 32 132 singlecc 20;
#X obj 32 132 singlecc 20;
#X obj 32 132 singlecc 20;
#X obj 32 132 singlecc 20;
#X obj 32 132 singlecc 20;
#X obj 32 132 singlecc 20;
#X obj 32 132 singlecc 20;
#X obj 32 132 singlecc 20;
#X obj 32 132 singlecc 20;
#X obj 32 132 singlecc 20;
#X obj 32 132 singlecc 20;
#X obj 32 132 singlecc 20;
#X obj 32 132 singlecc 20;
#X obj 32 132 singlecc 20;
#X obj 32 132 singlecc 20;
#X obj 32 132 singlecc 20;
#X obj 32 132 singlecc 20;
#X obj 32 132 singlecc 20;
#X obj 32 132 singlecc 20;
#X obj 32 132 singlecc 20;
#X obj 32 132 singlecc 20;
#X obj 32 132 singlecc 20;
#X obj 32 132 singlecc 20;
#X obj 32 132 singlecc 20;
#X obj 32 132 singlecc 20;
#X obj 32 132 singlecc 20;
#X obj 32 132 singlecc 20;
#X obj 32 132 singlecc 20;
#X obj 32 132 singlecc 20;
#X obj 32 132 singlecc 20;
#X obj 32 132 singlecc 20;
#X obj 32 132 singlecc 20;
#X obj 32 132 singlecc 20;
#X obj 32 132 singlecc 20;
#X obj 830 476 sysex2list;
#X obj 823 445 midiin;
#X obj 896 638 print;
#X obj 746 543 print;
#X obj 863 544 list split 9;
#X connect 710 0 713 0;
#X connect 710 0 714 0;
#X connect 711 0 710 0;
#X connect 714 1 712 0;
#X coords 0 -1 1 1 85 60 2 100 100;
