#N canvas 599 257 679 436 10;
#X obj 159 293 ctlout;
#X floatatom 128 234 5 0 0 0 - - -;
#X floatatom 133 58 5 0 127 0 - - -;
#X floatatom 282 37 5 0 16 0 - - -;
#X text 125 32 value;
#X text 282 17 channel;
#X obj 93 29 bng 15 250 50 0 empty empty empty 17 7 0 10 -4034 -1 -1
;
#X floatatom 254 237 5 0 0 0 - - -;
#X obj 126 8 ctlin \$1;
#X obj 184 239 f \$1;
#X obj 182 173 loadbang;
#X obj 57 114 bng 15 250 50 0 empty empty empty 17 7 0 10 -258113 -1
-1;
#X obj 77 114 hsl 128 15 0 127 0 0 empty empty empty -2 -8 0 10 -260097
-1 -1 9600 1;
#X connect 1 0 0 0;
#X connect 2 0 12 0;
#X connect 3 0 7 0;
#X connect 7 0 0 2;
#X connect 8 0 2 0;
#X connect 8 0 6 0;
#X connect 8 1 3 0;
#X connect 9 0 0 1;
#X connect 10 0 9 0;
#X connect 12 0 11 0;
#X coords 0 -1 1 1 180 20 2 40 110;
